<svg xmlns="http://www.w3.org/2000/svg" version="1.1" xmlns:xlink="http://www.w3.org/1999/xlink" xmlns:svgjs="http://svgjs.dev/svgjs" width="100%" height="100%" viewBox="0 0 1000 600"><rect width="1000" height="600" x="0" y="0" fill="#df678c"/><g><rect width="333.3333333333333" height="333.3333333333333" rx="13.333333333333334" ry="13.333333333333334" y="140.0571904451282" fill="#3d155f" transform="matrix(1.0608056235129362,0,0,1.0608056235129362,0,-25.374396304467595)" x="117.8349380493164"/><path d="M231.05731970766834 257.5146497972868Q231.69772337119917 260.2509199960093 230.0093864400725 261.18241623387235Q228.35015876637902 262.1139124717354 226.57449406295268 262.1139124717354Q224.76972010209312 262.1139124717354 217.23042242688945 262.55055133323367L217.23042242688945 262.55055133323367Q212.42739495040837 263.59848460082947 207.59525821649405 265.257712274523L207.59525821649405 265.257712274523L207.39149341446154 265.257712274523Q207.39149341446154 269.04191574084143 205.29562687926978 276.37744861401256L205.29562687926978 276.37744861401256Q205.29562687926978 278.88084475326934 204.2476936116739 284.55714995274695L204.2476936116739 284.55714995274695Q204.2476936116739 286.2163776264405 203.6072899481431 287.9047145575671Q202.9959955420455 289.59305148869385 202.9959955420455 293.14438089554653L202.9959955420455 293.14438089554653Q201.51142341295133 301.731611838346 201.71518821498387 302.57578030390937Q201.94806227444963 303.41994876947274 201.71518821498387 304.8754116411337Q201.51142341295133 306.3599837702278 200.90012900685375 309.27090951354967Q200.25972534332294 312.21094451430474 200.25972534332294 316.1989127826557Q200.25972534332294 320.1868810510067 199.21179207572706 323.3306808537943L199.21179207572706 323.3306808537943L199.21179207572706 325.6303121910187Q199.61932167979214 333.16960986622223 198.68782544192914 336.31340966900996Q197.75632920406613 339.45720947179757 197.75632920406613 341.66951303672215Q197.75632920406613 343.8527073442135 196.70839593647025 348.48107927609533Q195.66046266887437 353.0803419505439 196.06799227293945 359.36794155611915L196.06799227293945 359.36794155611915L197.31969034256784 359.36794155611915Q202.5593566805472 358.9604119520541 202.87955851231263 359.04773972435373Q203.19976034407804 359.1641767540866 205.70315648333485 358.5237730905558L205.70315648333485 358.5237730905558L209.050721088155 358.75664715002154L211.14658762334676 358.75664715002154Q211.78699128687754 358.75664715002154 213.8828578220693 360.3285470514154Q215.97872435726106 361.90044695280915 216.8228928228244 363.35590982447013L216.8228928228244 363.35590982447013Q218.27835569448533 364.811372696131 217.7543890606874 366.1795077954923Q217.23042242688945 367.54764289485365 213.03868935650596 370.69144269764126L213.03868935650596 370.69144269764126L209.050721088155 371.9431407672696Q208.4394266820574 372.58354443080043 206.13979534483312 373.4277128963638Q203.81105475017563 374.24277210449395 202.15182707648216 374.24277210449395L202.15182707648216 374.24277210449395Q197.31969034256784 375.29070537208986 196.4755218770045 377.82321076877986L196.4755218770045 377.82321076877986Q195.66046266887437 379.48243844247327 186.43282806254405 379.0749088384082L186.43282806254405 379.0749088384082L179.30105999140545 379.0749088384082L175.31309172305447 380.32660690803664Q170.0734253850751 382.42247344322834 166.08545711672414 381.37454017563255Q162.1265981058064 380.32660690803664 160.7584630064451 379.8026402742387Q159.39032790708384 379.27867364044073 157.49822617392462 377.706773739047Q155.6061244407654 376.1348738376531 155.92632627253082 374.1554443321943Q156.2465281042962 372.14690556930213 157.29446137189208 368.3918113604169L157.29446137189208 368.3918113604169Q160.84579077874477 365.45177635966184 162.33036290783895 364.6076078940986L162.33036290783895 364.6076078940986Q172.3730567222994 361.46380809131085 175.10932692102196 360.41587482371506L175.10932692102196 360.41587482371506Q175.10932692102196 353.5169808120422 174.70179731695688 352.23617348498055L174.70179731695688 352.23617348498055Q175.31309172305447 352.032408682948 176.15726018861784 343.241412938116L176.15726018861784 343.241412938116Q176.36102499065035 342.39724447255264 175.10932692102196 339.25344466976503L175.10932692102196 339.25344466976503L175.10932692102196 338.0017466001366Q175.74973058455276 332.12167659862644 174.90556211898942 327.3186491221453L174.90556211898942 327.3186491221453Q174.90556211898942 327.08577506267955 175.74973058455276 319.98311624897417L175.74973058455276 319.98311624897417Q176.79766385214864 318.7023089219126 175.74973058455276 313.25887778190065L175.74973058455276 313.25887778190065Q176.5647897926829 309.27090951354967 177.2051934562137 306.9712781763254L177.2051934562137 306.9712781763254L177.40895825824623 304.03124317557035Q177.40895825824623 302.7795451059419 178.66065632787465 296.4919455003667L178.66065632787465 296.4919455003667L178.66065632787465 294.396078965175L179.09729518937291 292.73685129148146Q182.85238939825814 277.2216170795758 184.13319672531975 270.0898490084372L184.13319672531975 270.0898490084372Q182.44485979419306 270.4973786125023 182.03733019012802 270.4973786125023L182.03733019012802 270.4973786125023L175.10932692102196 271.5453118800982Q167.13339038432002 273.6411784152899 161.07866483821053 267.9939824732455L161.07866483821053 267.9939824732455Q155.83899850023116 260.86221440210693 160.84579077874477 255.8263128661601L160.84579077874477 255.8263128661601Q163.9895905815324 253.11915192487075 170.5100642465734 252.07121865727487L170.5100642465734 252.07121865727487Q176.15726018861784 250.17911692411568 177.84559711974453 249.33494845855233L177.84559711974453 249.33494845855233Q179.94146365493626 249.33494845855233 187.68452613217244 244.73568578410377L187.68452613217244 244.73568578410377Q195.42758860940864 243.68775251650789 196.70839593647025 243.68775251650789L196.70839593647025 243.68775251650789L206.54732494889817 242.43605444687947Q208.4394266820574 242.2031803874137 211.58322648484503 242.72714702121166Q214.72702628763267 243.2511136550096 215.33832069373022 244.09528212057293L215.33832069373022 244.09528212057293Q218.07459089245282 244.73568578410377 222.06255916080377 246.62778751726296L222.06255916080377 246.62778751726296L227.09846069675064 251.22705019171153Q230.0093864400725 255.41878326209502 231.05731970766834 257.5146497972868L231.05731970766834 257.5146497972868ZM250.35675738589237 253.3229167269033L250.56052218792493 248.49077999298896L249.92011852439407 243.68775251650789Q249.92011852439407 240.3401879116877 252.01598505958586 237.40015291093263Q254.1118515947776 234.46011791017753 257.48852545703096 233.41218464258165L257.48852545703096 233.41218464258165Q262.93195659704287 231.72384771145497 267.5312192714914 231.72384771145497L267.5312192714914 231.72384771145497Q274.66298734263 231.72384771145497 274.66298734263 237.40015291093263L274.66298734263 237.40015291093263Q274.66298734263 239.29225464409186 273.61505407503415 244.73568578410377L273.61505407503415 244.73568578410377L270.87878387631156 263.59848460082947Q266.279521201863 293.14438089554653 261.2436196659162 293.14438089554653L261.2436196659162 293.14438089554653Q257.48852545703096 285.4013184183103 256.8481217935001 280.56918168439597L256.8481217935001 280.56918168439597Q252.01598505958586 269.24568054287397 252.01598505958586 267.3535788097147L252.01598505958586 267.3535788097147Q252.01598505958586 264.8501826704579 251.20092585145574 264.00601420489454L251.20092585145574 264.00601420489454Q250.35675738589237 258.1550534608176 250.35675738589237 253.3229167269033L250.35675738589237 253.3229167269033ZM344.4669866674885 275.73704495048173L344.4669866674885 277.6291466836409Q344.67075146952106 281.2095853479268 346.12621434118205 294.19231416314244L346.12621434118205 294.19231416314244Q348.4258456784063 317.24684605025163 348.8624845399046 322.2827475861985L348.8624845399046 322.2827475861985L350.95835107509635 332.12167659862644L352.6175787487898 341.98971486848757Q357.24595068067157 332.76208026215727 357.04218587863903 331.27750813306307L357.04218587863903 331.27750813306307Q357.04218587863903 329.8220452614021 360.5935152854917 320.39064585303925L360.5935152854917 320.39064585303925Q365.62941682143855 311.3667760487415 367.08487969309954 304.46788203706865L367.08487969309954 304.46788203706865Q367.288644495132 303.2161839674402 369.3845110303238 298.38404723352585L369.3845110303238 298.38404723352585Q368.7732166242262 297.74364356999513 370.4324442979197 294.396078965175L370.4324442979197 294.396078965175Q372.1207812290463 290.8447495583223 373.05227746690935 286.8567812899713Q374.0128829622056 282.8688130216203 374.10021073450525 282.6650482195878Q374.2166477642381 282.46128341755525 374.42041256627067 282.2575186155227L374.42041256627067 282.2575186155227Q375.0608162298014 281.6171149519919 376.1087494973973 278.47331514920427L376.1087494973973 278.47331514920427Q376.7200439034949 275.5332801484492 376.7200439034949 273.8740524747557L376.7200439034949 273.8740524747557L376.7200439034949 267.3535788097147Q376.7200439034949 266.7422844036171 377.7679771710908 262.95808093729875L377.7679771710908 262.95808093729875L377.5642123690582 258.1550534608176Q377.5642123690582 253.11915192487075 382.3963491029725 245.1432153881688L382.3963491029725 245.1432153881688L386.58808217335604 241.59188598131612Q386.58808217335604 239.69978424815693 389.81920974844337 239.29225464409186Q393.0794465809638 238.85561578259356 395.5828427202206 239.69978424815693Q398.1153481169107 240.54395271372024 398.95951658247395 240.54395271372024L398.95951658247395 240.54395271372024Q399.7745757906041 241.38812117928362 405.01424212858353 242.639819248912L405.01424212858353 242.639819248912Q407.54674752527353 243.48398771447535 408.274478961104 245.78361905169962Q409.0022103969345 248.08325038892391 409.0022103969345 252.07121865727487L409.0022103969345 252.07121865727487L407.54674752527353 268.4015120773106Q407.54674752527353 269.8860842064047 406.29504945564514 288.7488830231305L406.29504945564514 288.7488830231305L406.4988142576776 295.4440122327708Q406.29504945564514 295.88065109426907 406.29504945564514 302.57578030390937L406.29504945564514 302.57578030390937L406.29504945564514 313.4626425839332Q406.29504945564514 316.6064423867208 406.29504945564514 317.45061085228417L406.29504945564514 317.45061085228417L406.9063438617427 325.42654738898614Q406.0621753961794 325.42654738898614 409.43884925843275 344.08558140367927L409.43884925843275 344.08558140367927Q409.43884925843275 346.99650714700124 411.6220435659242 356.7481083871295Q413.83434713084887 366.49970962725774 412.78641386325285 372.9910740348655L412.78641386325285 372.9910740348655Q412.78641386325285 376.33863863968566 406.7025790597102 379.0749088384082L406.7025790597102 379.0749088384082Q402.1033163852617 378.23074037284493 401.05538311766577 376.33863863968566L401.05538311766577 376.33863863968566Q399.16328138450655 375.29070537208986 398.72664252300825 374.67941096599225L398.72664252300825 374.67941096599225L397.0674148493148 372.58354443080043Q393.71985024449464 369.8472742320779 391.6239837093029 366.09218002319267L391.6239837093029 366.09218002319267Q390.13941158020873 364.6076078940986 389.5281171741111 361.90044695280915L389.5281171741111 361.90044695280915Q387.4322506389194 358.9604119520541 386.9956117774211 354.564914079638Q386.58808217335604 350.14030694978885 385.42371187602726 348.36464224636245Q384.2884508361318 346.58897754293616 383.64804717260097 344.9006406118094L383.64804717260097 344.9006406118094Q381.34841583537667 342.6010092745852 380.7080121718459 336.63361150077526Q380.0967177657483 330.66621372696545 379.45631410221745 326.2707158545494L379.45631410221745 326.2707158545494Q379.45631410221745 323.7382104578594 379.66007890425 322.48651238823106L379.66007890425 322.48651238823106Q379.04878449815243 320.7981754571043 378.9323474684195 319.98311624897417Q378.81591043868667 319.1389477834108 378.6121456366541 318.091014515815L378.6121456366541 318.091014515815L377.7679771710908 322.078982784166Q377.1566827649932 323.1269160517618 375.0608162298014 330.22957486546716L375.0608162298014 330.22957486546716L370.6653183573854 343.8527073442135L366.881114891067 357.0683102188949Q365.8331816234711 357.7087138824256 364.3777187518101 362.1042117548417L364.3777187518101 362.1042117548417Q362.48561701865094 366.9072392313228 362.1654151868855 367.3438780928211Q361.8452133551201 367.7514076968862 361.4376837510551 368.59557616244945L361.4376837510551 368.59557616244945Q359.74934681992835 371.9431407672696 357.6534802847366 374.0390073024614L357.6534802847366 374.0390073024614Q352.0062843426922 379.27867364044073 346.0388865688824 377.09547933294937Q340.0423795376393 374.8831757680248 337.33521859634993 368.59557616244945L337.33521859634993 368.59557616244945Q335.8506464672558 365.0442467555969 335.0355872591257 363.99631348800096L335.0355872591257 363.99631348800096Q334.80271319965993 362.3079765568742 332.7068466644682 358.1162434864907L332.7068466644682 358.1162434864907Q331.25138379280725 354.12827521813983 330.4072153272439 348.04444041459703L330.4072153272439 348.04444041459703Q329.35928205964797 346.1814479388711 328.951752455583 341.5530760069893L328.951752455583 341.5530760069893Q327.9038191879871 339.6609742738301 327.4671803264888 336.1096448669774Q327.0596507224237 332.55831546012473 326.21548225686035 329.18164159787125L326.21548225686035 329.18164159787125Q325.16754898926456 325.6303121910187 324.7600193851995 320.5944106550718L324.7600193851995 320.5944106550718Q324.3233805237012 316.83931644618656 321.6162195824119 306.7675133742929L321.6162195824119 306.7675133742929Q320.97581591888104 306.12710971076206 319.92788265128513 302.57578030390937L319.92788265128513 302.57578030390937Q319.52035304722006 305.9233449087295 319.52035304722006 306.24354674049493Q319.52035304722006 306.56374857226035 317.8320161160934 316.6064423867208L317.8320161160934 316.6064423867208Q318.2686549775917 317.0430812482191 317.6282513140609 322.894041992296L317.6282513140609 322.894041992296Q316.37655324443244 326.882010260647 316.1727884423999 331.27750813306307L316.1727884423999 331.27750813306307Q314.4844515112733 342.6010092745852 314.6882163133058 348.2773144740628L314.6882163133058 348.2773144740628Q315.32861997683665 350.14030694978885 314.80465334303864 352.7601401187785Q314.28068670924074 355.37997328776817 313.9604848774753 357.9998064567578Q313.6402830457099 360.6196396257476 313.0289886396123 362.7155061609393L313.0289886396123 362.7155061609393L313.0289886396123 364.2000782900335Q312.38858497608146 370.69144269764126 312.79611458014654 371.53561116320463L312.79611458014654 371.53561116320463Q312.79611458014654 373.8352425004289 311.02044987672025 377.182807105249Q309.24478517329385 380.5303717100692 305.46058170697546 379.715312501939L305.46058170697546 379.715312501939Q298.7654524973351 378.0269755708124 297.71751922973925 377.182807105249L297.71751922973925 377.182807105249Q295.41788789251495 373.4277128963638 295.41788789251495 370.4876778956087L295.41788789251495 370.4876778956087L295.41788789251495 360.41587482371506L295.82541749658003 356.66078061482983Q295.6216526945475 356.020376951299 296.02918229861257 351.8286438809155L296.02918229861257 351.8286438809155Q295.82541749658003 351.62487907888294 295.82541749658003 348.36464224636245Q295.82541749658003 345.1335146712752 295.2141230904824 343.44517774014855L295.2141230904824 343.44517774014855L295.2141230904824 341.34931120495673Q294.7774842289841 334.21754313381814 295.09768606074954 333.0822820939226Q295.41788789251495 331.9179117965939 294.9812490310167 327.9299435282429L294.9812490310167 327.9299435282429Q295.82541749658003 327.9299435282429 296.02918229861257 324.69881595315564Q296.2620563580783 321.43857912063515 296.6695859621434 317.6543756543167L296.6695859621434 317.6543756543167L298.1250488338043 317.0430812482191Q297.71751922973925 316.83931644618656 297.9212840317718 311.16301124670895L297.9212840317718 311.16301124670895Q298.1250488338043 309.70754837504796 298.96921729936764 303.6237135715053Q299.813385764931 297.5398787679626 299.69694873519813 295.3566844604711Q299.6096209628985 293.14438089554653 301.9092523001227 288.3122441616322L301.9092523001227 288.3122441616322Q306.3047501725388 275.1257505443841 306.6249520043042 271.5453118800982Q306.9451538360696 267.9939824732455 307.789322301633 265.257712274523L307.789322301633 265.257712274523Q308.6043815097631 258.35881826285015 311.7481813125507 253.73044633096836L311.7481813125507 253.73044633096836Q313.23275344164483 249.1311836565198 317.2207217099958 248.28701519095642L317.2207217099958 248.28701519095642L319.7241178492526 246.39491345779723L319.92788265128513 246.39491345779723Q323.9158509196361 243.48398771447535 334.1914187935623 245.57985424966708L334.1914187935623 245.57985424966708Q342.9824145383944 249.53871326058484 343.8265830039577 255.41878326209502L343.8265830039577 255.41878326209502Q342.9824145383944 258.35881826285015 344.4669866674885 275.73704495048173L344.4669866674885 275.73704495048173Z " fill="#df678c" transform="matrix(1.0608056235129362,0,0,1.0608056235129362,0,-25.374396304467595)"/><path d="M606.8736736746278 312.3796369450789L606.8736736746278 312.3796369450789Q608.1412902878594 309.81492426249383 608.5540026735628 303.0346493545103Q608.9961945153879 296.25437444652675 609.4089069010912 293.6896617639417L609.4089069010912 293.6896617639417Q609.4089069010912 268.86795970949765 595.8188776290025 261.2327805739858L595.8188776290025 261.2327805739858Q590.3062193342506 258.0489993128457 585.2062734252022 259.52297211892903L585.2062734252022 259.52297211892903Q582.8773963915904 259.52297211892903 578.0132861315153 262.50039718721746L578.0132861315153 262.50039718721746Q577.777450482542 265.4778222555059 577.777450482542 272.4644533563411L577.777450482542 272.4644533563411L576.7161900621619 280.3354681408264L574.8295048703752 299.8508680933702Q574.8295048703752 300.26358047907354 574.3873130285501 306.0120744227987L574.3873130285501 306.0120744227987Q571.2035317674101 339.32385984028303 571.2035317674101 355.8913141806602L571.2035317674101 355.8913141806602Q575.0358610632269 355.03640995313185 577.777450482542 352.2653410776951L577.777450482542 352.2653410776951Q585.2062734252022 346.1336142043883 586.0611776527305 345.69142236256323L586.0611776527305 345.69142236256323L589.038602721019 342.9498329432482Q590.0998631413989 342.7139972942748 594.5512610157707 337.8498870341997L594.5512610157707 337.8498870341997L594.5512610157707 337.643530841348L598.5899465044392 332.3372287394478L602.8349881859593 323.61130972743433Q604.5447966410161 321.28243269382256 606.8736736746278 312.3796369450789ZM545.5269254854377 344.42380574933156L545.5269254854377 344.42380574933156Q545.1142130997343 343.56890152180324 545.1142130997343 341.3579423126781Q545.1142130997343 339.11750364743136 545.7332816782894 336.14007857914294Q546.381829712966 333.1626535108545 546.381829712966 329.1534474783077Q546.381829712966 325.1147619896393 547.6494463261977 318.7471994673591L547.6494463261977 318.7471994673591Q546.7945420986694 317.47958285412744 547.8558025190493 309.1958556839388L547.8558025190493 309.1958556839388Q548.9170629394295 307.2796910360305 548.7107067465778 304.0959097748904Q548.5043505537261 300.9121285137503 548.5043505537261 298.9959638658419L548.5043505537261 298.9959638658419Q548.5043505537261 289.8868119242467 548.9170629394295 288.58971585489326Q549.3592547812544 287.3220992416616 549.1234191322811 283.5192494019665L549.1234191322811 283.5192494019665Q550.4205152016345 282.22215333261306 551.2459399730412 273.5257137767211L551.2459399730412 273.5257137767211Q544.0529526793543 273.73206996957276 540.4269795763892 269.6049461125393Q536.8304859295457 265.4778222555059 534.5016088959339 257.81316366387233L534.5016088959339 257.81316366387233Q534.7079650887856 256.5455470506406 535.032239106124 255.3958482618956Q535.3270336673406 254.2166700170289 535.562869316314 253.36176578950054Q535.7692255091657 252.5068615619722 536.3882940877207 251.56351896607882Q537.0368421223974 250.62017637018548 537.3611161397357 250.08954615999545Q537.6853901570742 249.55891594980542 538.7466505774541 248.58609389779042Q539.8079109978341 247.64275130189705 540.2206233835375 247.31847728455872Q540.6333357692408 246.99420326722034 542.1367880314459 246.050860671327Q543.6107608375293 245.07803861931197 544.0529526793543 244.78324405809528Q544.4656650650577 244.45897004075695 546.2639118884794 243.27979179589025Q548.062158711901 242.1300930071452 548.7107067465778 241.6879011653202L548.7107067465778 241.6879011653202Q549.3592547812544 240.62664074494018 552.1008442005696 240.09601053475015Q554.8719130760062 239.56538032456015 560.3845713707581 237.2365032909484L560.3845713707581 237.2365032909484Q561.2394755982864 236.38159906342005 570.3486275398817 234.37699604714666Q579.4872589375987 232.34291357475158 588.1836984934905 235.9688866777167L588.1836984934905 235.9688866777167Q593.0772882096874 235.9688866777167 595.1998090504475 236.82379090524506L595.1998090504475 236.82379090524506Q597.3223298912076 238.71047609703177 600.9188235380509 239.56538032456015L600.9188235380509 239.56538032456015L611.737783934703 245.3138742682853Q614.0961404244363 247.64275130189705 621.2891277181232 256.33919085778894L621.2891277181232 256.33919085778894Q629.1601425026084 270.341932515581 631.2826633433685 284.78686601519814L631.2826633433685 284.78686601519814Q631.4890195362202 288.82555150386656 631.4890195362202 298.9959638658419L631.4890195362202 298.9959638658419Q629.5728548883118 318.30500762553413 624.4729089792634 327.03092663754774L624.4729089792634 327.03092663754774Q624.06019659356 329.56615986401107 622.1440319456516 333.39848915982793L622.1440319456516 333.39848915982793Q622.1440319456516 333.8112015455313 619.2845247018498 338.58687343724137Q616.425017458048 343.36254532895157 612.799044355083 347.93186102781Q609.2025507082395 352.5011767266684 608.1412902878594 353.97514953275186L608.1412902878594 353.97514953275186Q599.4448507319676 362.0525205100887 598.3835903115876 362.8779452814954L598.3835903115876 362.8779452814954Q593.4900005953907 366.5039183844606 592.8709320168357 366.71027457731225L592.8709320168357 366.71027457731225Q576.7161900621619 374.7876455546491 575.7728474662686 375.4067141332041Q574.8295048703752 376.05526216788087 570.5844631888551 376.9101663954092L570.5844631888551 376.9101663954092Q564.4232568594266 377.5292349739642 562.9198045972215 376.26161836073254L562.9198045972215 376.26161836073254Q559.5296671432297 374.7876455546491 556.7880777239147 371.81022048636066L556.7880777239147 371.81022048636066Q555.9331734963863 371.603864293509 553.3684608138012 368.4200830323689L553.3684608138012 368.4200830323689Q549.9783233598095 365.8553703497838 549.5656109741061 365.44265796408047L549.5656109741061 365.44265796408047Q546.7945420986694 361.40397247541205 545.5269254854377 350.1428202369351L545.5269254854377 350.1428202369351Q545.320569292586 349.3173954655283 545.5269254854377 344.42380574933156ZM675.4134091575048 324.90840579678763L671.8169155106614 323.61130972743433L671.8169155106614 332.1013930904745Q671.8169155106614 345.2787099768599 673.2908883167447 346.75268278294334L673.2908883167447 346.75268278294334Q673.084532123893 346.959038975795 674.3521487371247 351.85262869199175L674.3521487371247 351.85262869199175Q674.3521487371247 353.5624371470485 676.0619571921815 357.15893079389195L676.0619571921815 357.15893079389195Q676.0619571921815 358.22019121427195 682.0168073287583 362.25887670294037L682.0168073287583 362.25887670294037Q684.5520405552218 362.25887670294037 694.5160967243453 358.0138350214203L694.5160967243453 358.0138350214203L709.6095782586391 352.2653410776951Q712.3511676779542 351.4399163062884 714.7979625360526 353.0318069368585Q717.2447573941511 354.6236975674285 717.775387604341 358.5444652316103Q718.3060178145311 362.46523289579204 717.5690314114893 364.1750413508488Q716.802565552326 365.8553703497838 713.9430583085242 368.4200830323689Q711.0835510647225 370.95531625883234 710.2286468371942 372.01657667921233Q709.3737426096658 373.07783709959244 707.044865576054 374.2570153444591Q704.7159885424423 375.4067141332041 701.8564812986406 376.6743307464359Q698.9969740548388 377.9714268157892 697.9357136344588 378.5904953943442L697.9357136344588 378.5904953943442Q689.6519864642702 382.42282469016095 685.2005885898984 381.5679204626326L685.2005885898984 381.5679204626326Q682.4295197144617 381.5679204626326 679.5700124706599 380.50666004225263Q676.7105052268582 379.4453996218725 676.3862312095198 379.5633174463593Q676.0619571921815 379.6517558147242 674.6764227544631 379.3274817973859Q673.2908883167447 379.0326872361693 672.023271703513 378.70841321883086Q670.7556550902814 378.38413920149253 665.4493529883812 377.32287878111254L665.4493529883812 377.32287878111254Q665.4493529883812 376.4679745535842 662.4719279200928 375.6130703260558L662.4719279200928 375.6130703260558L656.7529134324892 370.95531625883234Q655.2494611702842 370.100412031304 653.5691321713491 365.64901415693214L653.5691321713491 365.64901415693214L651.6529675234408 362.46523289579204Q650.7980632959124 361.8166848611154 649.324090489829 357.5716431795953L649.324090489829 357.5716431795953Q648.4691862623007 356.5103827592152 648.262830069449 353.7687933399002L648.262830069449 353.7687933399002Q647.2015696490689 351.4399163062884 647.2015696490689 347.1948746247683L647.2015696490689 347.1948746247683Q646.3466654215406 346.1336142043883 645.2854050011606 339.11750364743136L645.2854050011606 339.11750364743136Q643.8114321950773 329.9788722497144 645.0790488083089 322.78588495602753L645.0790488083089 322.78588495602753Q645.0790488083089 318.7471994673591 646.5530216143923 314.91487017154236L646.5530216143923 314.91487017154236Q646.7593778072439 313.23454117260735 646.9952134562172 311.5247327175506L646.9952134562172 311.5247327175506Q648.0564738765974 306.0120744227987 648.4691862623007 303.0346493545103L648.4691862623007 303.0346493545103Q647.6142820347723 300.05722428622187 651.2402551377374 288.82555150386656L651.2402551377374 288.82555150386656Q651.2402551377374 287.1157430488099 652.5963101193341 283.81404396318305Q653.9818445570525 280.54182433367805 654.1882007499041 276.91585123071286L654.1882007499041 276.91585123071286L655.8980092049609 272.9066451981661Q655.8980092049609 271.19683674310943 659.081790466101 260.3778763464574L659.081790466101 260.3778763464574Q660.7915989211576 256.33919085778894 660.7915989211576 255.69064282311228L660.7915989211576 255.69064282311228L666.0979010230578 244.45897004075695L668.6331342495213 241.06883258676518Q670.1071070556046 239.56538032456015 673.084532123893 238.5041199041801L673.084532123893 238.5041199041801Q674.3521487371247 237.44285948380008 679.8942864879982 238.71047609703177L679.8942864879982 238.71047609703177Q683.28442394199 240.00757216638513 684.5520405552218 241.27518877961685L684.5520405552218 241.27518877961685Q686.0260133613051 241.89425735817187 688.1485342020651 241.89425735817187L688.1485342020651 241.89425735817187L704.5096323495907 240.83299693779185Q710.6708386790192 241.27518877961685 712.7933595197792 242.2185313755102Q714.9158803605393 243.19135342752523 716.9204833768127 245.52023046113698Q718.9250863930861 247.84910749474872 718.3944561828961 250.17798452836044Q717.8638259727061 252.5068615619722 716.5962093594744 253.80395763132555L716.5962093594744 253.80395763132555Q713.8546199401592 256.13283466493726 706.425796997499 259.31661592607736L706.425796997499 259.31661592607736Q693.4548363039653 266.3032470269126 692.3935758835853 266.74543886873755L692.3935758835853 266.74543886873755L687.3231094306584 269.0743159023493Q684.1393281695184 271.19683674310943 683.28442394199 273.5257137767211L683.28442394199 273.5257137767211Q676.7105052268582 297.31563486690686 676.1798750166681 299.96878591785696Q675.6492448064781 302.62193696880695 675.5313269819915 303.15256717899706Q675.4134091575048 303.68319738918706 675.4134091575048 303.88955358203873L675.4134091575048 303.88955358203873L679.6584508390249 303.44736174021364Q689.0034384295935 300.49941612804696 690.7132468846503 301.56067654842695L690.7132468846503 301.56067654842695Q691.5681511121786 301.56067654842695 693.042123918262 300.9121285137503L693.042123918262 300.9121285137503Q700.8836592466255 298.14105963831355 706.8385093832023 298.58325148013853L706.8385093832023 298.58325148013853Q707.8997698035824 297.9347034454619 709.1673864168141 299.43815570766685Q710.4350030300458 300.9121285137503 711.0835510647225 303.0346493545103L711.0835510647225 303.0346493545103Q712.3511676779542 308.3409514564105 707.8997698035824 311.3183765246989L707.8997698035824 311.3183765246989Q698.9969740548388 317.24374720515414 686.6745613959818 320.8697203081192L686.6745613959818 320.8697203081192Q682.6358759073133 324.0535015692593 675.4134091575048 324.90840579678763L675.4134091575048 324.90840579678763ZM759.4888180165005 275.85459081033287L759.4888180165005 275.85459081033287L761.3755032082873 286.0544826284298L761.3755032082873 290.94807234462667Q763.2916678561957 296.6670868322301 764.1465720837241 302.62193696880695L764.1465720837241 302.62193696880695Q767.5367095377158 322.1373369213509 767.9789013795408 325.1147619896393Q768.3916137652442 328.09218705792773 768.9222439754342 330.6274202843912Q769.4528741856242 333.1626535108545 769.0401617999208 333.6048453526796L769.0401617999208 333.6048453526796Q769.2465179927725 335.2851743516146 769.3349563611375 336.46435259648126Q769.4528741856242 337.643530841348 769.7771482029625 338.3805172443897Q770.101422220301 339.11750364743136 770.3962167815175 339.32385984028303Q770.720490798856 339.5302160331347 771.1626826406809 339.11750364743136L771.1626826406809 339.11750364743136Q772.4302992539126 338.26259941990304 774.7591762875244 330.4210640915395L774.7591762875244 330.4210640915395Q777.2944095139877 325.1147619896393 778.1493137415162 320.66336411526754L778.1493137415162 320.66336411526754Q778.5915055833411 318.09865143268246 780.0654783894246 312.5859931379306L780.0654783894246 312.5859931379306Q781.5394511955079 308.1345952635588 782.8365472648613 304.0959097748904L782.8365472648613 304.0959097748904Q784.3105200709447 300.49941612804696 784.9590681056213 296.3428128148918Q785.5781366841763 292.21568895785833 785.696054508663 291.68505874766834Q785.784492877028 291.15442853747834 786.4330409117047 289.65097627527325L786.4330409117047 289.65097627527325Q788.5555617524648 283.5192494019665 788.5555617524648 280.2175503163396Q788.5555617524648 276.91585123071286 789.4104659799931 273.11300139101775L789.4104659799931 273.11300139101775Q789.4104659799931 267.80669928911766 792.3878910482815 258.8744240842524L792.3878910482815 258.8744240842524Q792.3878910482815 258.46171169854904 793.6555076615132 253.6860398068389Q794.923124274745 248.91036791512875 796.8392889226534 244.8716824264603L796.8392889226534 244.8716824264603Q800.229426376645 235.9688866777167 809.1322221253888 232.7851054165766L809.1322221253888 232.7851054165766Q812.7581952283538 231.72384499619656 817.0916752782389 231.72384499619656Q821.4546347842457 231.72384499619656 823.0465254148157 232.7851054165766Q824.6384160453858 233.84636583695664 824.8447722382375 237.44285948380008L824.8447722382375 237.44285948380008Q824.4320598525342 238.71047609703177 824.2257036596825 241.48154497246853L824.2257036596825 241.48154497246853L817.622305488429 261.8518491525408L814.8807160691138 268.86795970949765L812.3160033865288 273.9679056185462Q812.3160033865288 274.3806180042495 811.2547429661488 276.5031388450095L811.2547429661488 276.5031388450095L809.1322221253888 283.5192494019665Q808.7195097396853 286.7030306631066 808.0709617050087 287.76429108348657L808.0709617050087 287.76429108348657L804.4744680581653 299.6445119005185Q803.6195638306369 300.49941612804696 803.0004952520819 304.74445780956705L803.0004952520819 304.74445780956705Q801.290686797025 310.4634722971706 800.0230701837934 312.79234933078226L800.0230701837934 312.79234933078226Q798.5196179215884 317.03739101230246 798.5196179215884 318.7471994673591Q798.5196179215884 320.42752846629423 797.4583575012084 323.5228713590693Q796.3970970808283 326.58873479572276 796.1023025196116 326.9130088130611Q795.7780285022734 327.2372828303994 795.1294804675966 329.77251605686274Q794.5104118890415 332.3372287394478 794.5104118890415 334.87246196591127L794.5104118890415 334.87246196591127Q793.6555076615132 335.2851743516146 793.6555076615132 338.704791261728L793.6555076615132 338.704791261728Q792.3878910482815 341.44638068104314 791.9456992064565 346.54632659009167L791.9456992064565 346.54632659009167Q790.8844387860765 348.462491238 790.6780825932249 352.0589848848434L790.6780825932249 352.0589848848434Q788.5555617524648 360.1363558621804 785.165424298473 364.7056715610388Q781.7752868444812 369.2455078037756 775.407724322201 370.3067682241557L775.407724322201 370.3067682241557Q769.0401617999208 371.81022048636066 766.4754491173358 370.3067682241557L766.4754491173358 370.3067682241557Q765.6205448898074 370.542603873129 763.7338596980208 369.89405583845235L763.7338596980208 369.89405583845235Q762.6725992776406 369.89405583845235 762.2304074358157 369.481343452749L762.2304074358157 369.481343452749Q760.7564346297322 369.481343452749 757.5726533685922 367.56517880484057L757.5726533685922 367.56517880484057Q755.2437763349805 366.71027457731225 753.416050055437 364.7056715610388Q751.6178032320154 362.6715890886437 749.4952823912553 359.9299996693287L749.4952823912553 359.9299996693287Q749.0825700055519 358.8687392489486 746.9600491647918 355.6849579878085L746.9600491647918 355.6849579878085Q746.3115011301152 350.1428202369351 745.2502407097352 349.081559816555L745.2502407097352 349.081559816555Q744.8375283240318 348.020299396175 744.8375283240318 347.60758701047166L744.8375283240318 347.60758701047166L743.5699117108 342.50764110142313Q743.7762679036518 342.7139972942748 743.9826240965035 343.36254532895157L743.9826240965035 343.36254532895157Q743.5699117108 337.20133899952305 743.7762679036518 333.1626535108545L743.7762679036518 333.1626535108545Q742.9213636761234 331.0401326700945 743.7762679036518 326.7950909885743L743.7762679036518 326.7950909885743Q743.7762679036518 323.40495353458255 743.1277198689751 320.8697203081192L743.1277198689751 320.8697203081192Q740.7988428353633 314.91487017154236 740.6809250108768 312.5859931379306Q740.5924866425117 310.2571161043189 739.943938607835 305.1571701952704L739.943938607835 305.1571701952704Q739.943938607835 299.6445119005185 739.5312262221316 295.6058264118501L739.5312262221316 295.6058264118501L735.9052531191666 275.23552223177785Q734.6376365059348 268.4257678676727 734.8439926987866 267.27606907892766Q735.0798283477599 266.0968908340609 734.9619105232732 265.7726168167226Q734.8439926987866 265.4778222555059 734.7555543304215 264.4165618351259Q734.6376365059348 263.3553014147459 734.4312803130831 261.64549295968914L734.4312803130831 261.64549295968914Q732.9573075069998 258.25535550569737 732.7214718580265 256.13283466493726L732.7214718580265 256.13283466493726Q725.0862927225146 237.44285948380008 735.6988969263149 235.32033864304003L735.6988969263149 235.32033864304003Q736.9665135395467 234.90762625733666 741.3294730455534 234.90762625733666Q745.6924325515602 234.90762625733666 746.9600491647918 235.231900274675Q748.2276657780236 235.5266948358917 750.143830425932 236.82379090524506L750.143830425932 236.82379090524506Q755.0079406860071 239.77173651741182 757.1304615267672 260.5842325393091L757.1304615267672 260.5842325393091Q758.8402699818239 271.6095491288128 759.1645439991622 272.9950835665311Q759.4888180165005 274.3806180042495 759.4888180165005 275.85459081033287Z " fill="#3d155f" transform="matrix(1.0608056235129362,0,0,1.0608056235129362,0,-25.374396304467595)"/></g></svg>